<svg xmlns="http://www.w3.org/2000/svg" viewBox="0 0 314.15 187.61"><defs><style>.cls-1{fill:#f2aeb4;}</style></defs><g id="Capa_2" data-name="Capa 2"><g id="Capa_1-2" data-name="Capa 1"><path class="cls-1" d="M281.37,84.43A32.52,32.52,0,0,0,271.49,86a42.39,42.39,0,0,0-58.81-34.48c.06-1,.15-1.93.15-2.91A48.55,48.55,0,0,0,118,33.73a32.67,32.67,0,0,0-42.27,19A32.74,32.74,0,0,0,28.7,93.17,43.76,43.76,0,1,0,77,162.69a59.8,59.8,0,0,0,59.18,10.65A53.36,53.36,0,0,0,218.12,162a32.7,32.7,0,0,0,47.93-15.78,32.77,32.77,0,1,0,15.32-61.74Z"/></g></g></svg>
